<svg width="26" height="26" viewBox="0 0 26 26" fill="none" xmlns="http://www.w3.org/2000/svg">
<g clip-path="url(#clip0)">
<path d="M25.9846 5.37695L16.8447 12.9878L26.0001 19.0809V5.54849C26.0001 5.48999 25.9941 5.43291 25.9846 5.37695Z" fill="#0B4740"/>
<path d="M16.0205 13.6738L14.8683 14.6332C14.327 15.084 13.6635 15.3093 13.0001 15.3093C12.3366 15.3093 11.673 15.084 11.1318 14.6332L9.97963 13.6738L0 20.3155V20.4523C0 21.019 0.461145 21.4802 1.02791 21.4802H24.972C25.5388 21.4802 25.9999 21.019 25.9999 20.4523V20.3155L16.0205 13.6738Z" fill="#0B4740"/>
<path d="M24.9762 4.51953C24.9749 4.51953 24.9737 4.51953 24.9724 4.51953H1.02826C1.02699 4.51953 1.02577 4.51953 1.0245 4.51953C0.879367 4.52009 0.816551 4.70498 0.928066 4.79786L10.3369 12.6326C10.338 12.6335 10.3391 12.6345 10.3402 12.6354L11.7899 13.8425C12.4913 14.4266 13.5095 14.4266 14.2109 13.8425L25.0726 4.79786C25.1841 4.70493 25.1213 4.52004 24.9762 4.51953Z" fill="#0B4740"/>
<path d="M0.0154883 5.37695C0.00604297 5.43291 0 5.48989 0 5.54849V19.0809L9.1554 12.9877L0.0154883 5.37695Z" fill="#0B4740"/>
</g>
<defs>
<clipPath id="clip0">
<rect width="26" height="26" fill="white"/>
</clipPath>
</defs>
</svg>
