<svg width="63" height="63" viewBox="0 0 63 63" fill="none" xmlns="http://www.w3.org/2000/svg">
<path d="M28.3755 29.9104C28.2781 25.2948 27.2999 20.7402 25.4936 16.4915C13.9663 21.8743 5.49851 32.0306 2.60398 44.0149C4.29792 47.8961 6.75441 51.3974 9.82762 54.3108C12.7501 44.1485 19.3656 35.4456 28.3755 29.9104ZM23.6909 12.8479C21.7601 9.48387 19.2994 6.45312 16.4038 3.87236C4.85105 10.1946 -1.97902 23.2835 0.534647 37.1595C4.77488 26.6097 13.0268 17.8626 23.6909 12.8479ZM47.5073 33.8079C48.5991 21.138 44.0415 8.73467 35.1294 0.241503C33.2632 0.0256831 28.5786 -0.456739 22.5737 1.32061C29.9207 8.93381 34.1547 19.0195 34.4438 29.5956C38.4897 31.8204 42.9239 33.2502 47.5073 33.8079ZM31.6763 35.014C27.7276 37.4114 24.272 40.5395 21.4946 44.2308C31.9048 51.5052 44.9175 53.7649 56.7241 50.2991C59.2637 46.8964 61.0863 43.0137 62.0815 38.886C58.7243 39.7415 55.2754 40.1848 51.811 40.2063C44.8794 40.1937 37.9858 38.4163 31.6763 35.014ZM19.1968 47.6712C17.2671 50.972 15.9341 54.5774 15.1216 58.3606C20.7531 61.8171 27.3324 63.4069 33.9209 62.9031C40.5094 62.3992 46.7705 59.8276 51.811 55.555C37.478 57.5989 26.0014 52.4065 19.1968 47.6712ZM42.0864 1.89189C49.1069 10.8294 52.56 22.3567 51.5571 34.0872C55.4247 34.0954 59.2688 33.4868 62.9448 32.2845C62.9448 32.0306 62.9829 31.7767 62.9829 31.5228C62.9829 17.8372 54.2612 6.24639 42.0864 1.89189Z" fill="#0B4740"/>
</svg>
