<svg width="29" height="28" viewBox="0 0 29 28" fill="none" xmlns="http://www.w3.org/2000/svg">
<path d="M1.43937 0.00254842L28.8166 0.00555752L27.3771 27.1315L-0.000136442 27.1285L1.43937 0.00254842Z" fill="#25625A"/>
<g clip-path="url(#clip0)">
<path d="M17.6689 6H10.331C7.94284 6 5.99997 7.94287 5.99997 10.331V17.669C5.99997 20.0571 7.94284 22 10.331 22H17.669C20.0571 22 21.9999 20.0571 21.9999 17.669V10.331C21.9999 7.94287 20.0571 6 17.6689 6V6ZM14 18.3749C11.5876 18.3749 9.62508 16.4123 9.62508 14C9.62508 11.5876 11.5876 9.62511 14 9.62511C16.4123 9.62511 18.3748 11.5876 18.3748 14C18.3748 16.4123 16.4123 18.3749 14 18.3749V18.3749ZM18.4794 10.6569C17.7665 10.6569 17.1867 10.077 17.1867 9.36413C17.1867 8.65124 17.7665 8.07128 18.4794 8.07128C19.1923 8.07128 19.7723 8.65124 19.7723 9.36413C19.7723 10.077 19.1923 10.6569 18.4794 10.6569Z" fill="white"/>
<path d="M14 10.5625C12.105 10.5625 10.5631 12.1042 10.5631 13.9994C10.5631 15.8944 12.105 17.4363 14 17.4363C15.8951 17.4363 17.4369 15.8944 17.4369 13.9994C17.4369 12.1042 15.8951 10.5625 14 10.5625V10.5625Z" fill="white"/>
<path d="M18.4794 9.00977C18.2839 9.00977 18.1247 9.16895 18.1247 9.3645C18.1247 9.56006 18.2839 9.71924 18.4794 9.71924C18.6751 9.71924 18.8343 9.56018 18.8343 9.3645C18.8343 9.16882 18.6751 9.00977 18.4794 9.00977Z" fill="white"/>
</g>
<defs>
<clipPath id="clip0">
<rect width="16" height="16" fill="white" transform="translate(5.99997 6)"/>
</clipPath>
</defs>
</svg>
