<svg width="29" height="28" viewBox="0 0 29 28" fill="none" xmlns="http://www.w3.org/2000/svg">
<path d="M1.43937 0.00254842L28.8166 0.00555752L27.3771 27.1315L-0.000136442 27.1285L1.43937 0.00254842Z" fill="#25625A"/>
<g clip-path="url(#clip0)">
<path d="M24 8.41887C23.3306 8.7125 22.6173 8.90712 21.8737 9.00162C22.6387 8.54487 23.2226 7.82712 23.4971 6.962C22.7838 7.38725 21.9963 7.68763 21.1571 7.85525C20.4798 7.13413 19.5146 6.6875 18.4616 6.6875C16.4186 6.6875 14.7738 8.34575 14.7738 10.3786C14.7738 10.6711 14.7986 10.9524 14.8593 11.2201C11.7915 11.0705 9.07684 9.60013 7.25322 7.36025C6.93484 7.91263 6.74809 8.54488 6.74809 9.2255C6.74809 10.5035 7.40622 11.6364 8.38722 12.2922C7.79434 12.281 7.21272 12.1089 6.71997 11.8377C6.71997 11.849 6.71997 11.8636 6.71997 11.8782C6.71997 13.6715 7.99909 15.161 9.67647 15.5041C9.37609 15.5863 9.04872 15.6256 8.70897 15.6256C8.47272 15.6256 8.23422 15.6121 8.01034 15.5626C8.48847 17.024 9.84522 18.0984 11.4585 18.1332C10.203 19.1154 8.60884 19.7071 6.88309 19.7071C6.58047 19.7071 6.29022 19.6936 5.99997 19.6565C7.63459 20.7106 9.57184 21.3125 11.661 21.3125C18.4515 21.3125 22.164 15.6875 22.164 10.8117C22.164 10.6486 22.1583 10.4911 22.1505 10.3348C22.8828 9.815 23.4982 9.16587 24 8.41887Z" fill="white"/>
</g>
<defs>
<clipPath id="clip0">
<rect width="18" height="18" fill="white" transform="translate(5.99997 5)"/>
</clipPath>
</defs>
</svg>
