<svg width="66" height="42" viewBox="0 0 66 42" fill="none" xmlns="http://www.w3.org/2000/svg">
<path d="M64.1793 10.1581L35.4136 1.1194C33.8461 0.626865 32.1548 0.626865 30.5884 1.1194L1.82165 10.1581C-0.605914 10.9206 -0.605914 14.2039 1.82165 14.9664L6.83662 16.5421C5.73627 17.9332 5.05977 19.6302 4.99274 21.4886C3.99965 22.0708 3.30046 23.1212 3.30046 24.3753C3.30046 25.5122 3.88621 26.4688 4.72977 27.0805L2.09699 39.1968C1.86805 40.2504 2.6518 41.2503 3.70677 41.2503H9.49312C10.5491 41.2503 11.3329 40.2504 11.1039 39.1968L8.47115 27.0805C9.31471 26.4688 9.90046 25.5122 9.90046 24.3753C9.90046 23.155 9.23324 22.1341 8.28552 21.5413C8.3639 19.9572 9.1559 18.5566 10.4192 17.6685L30.5873 24.0061C31.5216 24.2993 33.314 24.6653 35.4126 24.0061L64.1793 14.9675C66.6079 14.2039 66.6079 10.9217 64.1793 10.1581ZM36.3819 27.2324C33.4398 28.1563 30.9328 27.6458 29.618 27.2324L14.6628 22.5338L13.2005 34.5003C13.2005 38.2286 22.0651 41.2503 33.0005 41.2503C43.9358 41.2503 52.8005 38.2286 52.8005 34.5003L51.3381 22.5327L36.3819 27.2324Z" fill="#70C49C"/>
</svg>
