<svg width="50" height="40" viewBox="0 0 50 40" fill="none" xmlns="http://www.w3.org/2000/svg">
<path d="M0 35.125C0 37.4023 1.86632 39.25 4.16667 39.25H45.8333C48.1337 39.25 50 37.4023 50 35.125V20H0V35.125ZM16.6667 29.2812C16.6667 28.7141 17.1354 28.25 17.7083 28.25H29.5139C30.0868 28.25 30.5556 28.7141 30.5556 29.2812V32.7188C30.5556 33.2859 30.0868 33.75 29.5139 33.75H17.7083C17.1354 33.75 16.6667 33.2859 16.6667 32.7188V29.2812ZM5.55556 29.2812C5.55556 28.7141 6.02431 28.25 6.59722 28.25H12.8472C13.4201 28.25 13.8889 28.7141 13.8889 29.2812V32.7188C13.8889 33.2859 13.4201 33.75 12.8472 33.75H6.59722C6.02431 33.75 5.55556 33.2859 5.55556 32.7188V29.2812ZM50 4.875V9H0V4.875C0 2.59766 1.86632 0.75 4.16667 0.75H45.8333C48.1337 0.75 50 2.59766 50 4.875Z" fill="#70C49C"/>
</svg>
