<svg width="24" height="34" viewBox="0 0 24 34" fill="none" xmlns="http://www.w3.org/2000/svg">
<path d="M19.0341 12.8965C16.7479 12.8965 14.9307 14.7137 14.9307 16.9999C14.9307 19.2862 16.7479 21.1034 19.0341 21.1034C21.3203 21.1034 23.1375 19.2861 23.1375 16.9999C23.1375 14.7137 21.3203 12.8965 19.0341 12.8965ZM19.0341 19.931C17.3927 19.931 16.1031 18.6413 16.1031 16.9999C16.1031 15.3586 17.3927 14.0689 19.0341 14.0689C20.6755 14.0689 21.9651 15.3586 21.9651 16.9999C21.9651 18.6413 20.6755 19.931 19.0341 19.931Z" fill="#70C49C"/>
<path d="M12.0009 14.6561C14.2871 14.6561 16.1043 12.8389 16.1043 10.5527C16.1043 8.26643 14.2871 6.44922 12.0009 6.44922C9.71467 6.44922 7.89746 8.26649 7.89746 10.5527C7.89746 12.8388 9.71467 14.6561 12.0009 14.6561ZM12.0009 7.62162C13.6423 7.62162 14.9319 8.9113 14.9319 10.5527C14.9319 12.194 13.6423 13.4836 12.0009 13.4836C10.3595 13.4836 9.06986 12.194 9.06986 10.5526C9.06986 8.91123 10.3595 7.62162 12.0009 7.62162Z" fill="#70C49C"/>
<path d="M4.96575 8.20688C7.25198 8.20688 9.06919 6.38968 9.06919 4.10344C9.06919 1.81727 7.25198 0 4.96575 0C2.67951 0 0.862305 1.81727 0.862305 4.10344C0.862305 6.38968 2.67951 8.20688 4.96575 8.20688ZM4.96575 1.1724C6.60711 1.1724 7.89679 2.46208 7.89679 4.10344C7.89679 5.7448 6.60711 7.03448 4.96575 7.03448C3.32438 7.03448 2.03471 5.7448 2.03471 4.10344C2.03471 2.46208 3.32438 1.1724 4.96575 1.1724Z" fill="#70C49C"/>
<path d="M12.0009 19.3457C9.71467 19.3457 7.89746 21.1629 7.89746 23.4491C7.89746 25.7354 9.71473 27.5526 12.0009 27.5526C14.2871 27.5526 16.1043 25.7354 16.1043 23.4491C16.1043 21.1629 14.2871 19.3457 12.0009 19.3457ZM12.0009 26.3802C10.3595 26.3802 9.06986 25.0905 9.06986 23.4491C9.06986 21.8078 10.3595 20.5181 12.0009 20.5181C13.6423 20.5181 14.9319 21.8078 14.9319 23.4491C14.9319 25.0905 13.6423 26.3802 12.0009 26.3802Z" fill="#70C49C"/>
<path d="M4.96575 25.793C2.67951 25.793 0.862305 27.6102 0.862305 29.8964C0.862305 32.1826 2.67951 33.9998 4.96575 33.9998C7.25198 33.9998 9.06919 32.1826 9.06919 29.8964C9.06919 27.6102 7.25198 25.793 4.96575 25.793ZM4.96575 32.8274C3.32438 32.8274 2.03471 31.5378 2.03471 29.8964C2.03471 28.255 3.32438 26.9654 4.96575 26.9654C6.60711 26.9654 7.89679 28.255 7.89679 29.8964C7.89679 31.5378 6.60711 32.8274 4.96575 32.8274Z" fill="#70C49C"/>
</svg>
