<svg width="44" height="50" viewBox="0 0 44 50" fill="none" xmlns="http://www.w3.org/2000/svg">
<path d="M31.3696 31.3091L22 40.6255L12.6304 31.3091C5.60804 31.6118 0 37.3247 0 44.3755V45.313C0 47.9009 2.11161 50.0005 4.71429 50.0005H39.2857C41.8884 50.0005 44 47.9009 44 45.313V44.3755C44 37.3247 38.392 31.6118 31.3696 31.3091ZM1.33571 7.79346L1.96429 7.93994V13.6431C1.27679 14.0532 0.785714 14.7661 0.785714 15.6255C0.785714 16.4458 1.2375 17.1294 1.87589 17.5493L0.34375 23.6333C0.176786 24.3071 0.55 25.0005 1.09018 25.0005H5.19554C5.73571 25.0005 6.10893 24.3071 5.94196 23.6333L4.40982 17.5493C5.04821 17.1294 5.5 16.4458 5.5 15.6255C5.5 14.7661 5.00893 14.0532 4.32143 13.6431V8.50635L10.8036 10.0591C9.95893 11.7388 9.42857 13.6138 9.42857 15.6255C9.42857 22.5298 15.0562 28.1255 22 28.1255C28.9437 28.1255 34.5714 22.5298 34.5714 15.6255C34.5714 13.6138 34.0509 11.7388 33.1964 10.0591L42.6545 7.79346C44.442 7.36377 44.442 5.14697 42.6545 4.71728L23.9545 0.225098C22.6777 -0.0776367 21.3321 -0.0776367 20.0554 0.225098L1.33571 4.70752C-0.441964 5.13721 -0.441964 7.36377 1.33571 7.79346Z" fill="#70C49C"/>
</svg>
