<svg width="40" height="30" viewBox="0 0 40 30" fill="none" xmlns="http://www.w3.org/2000/svg">
<path d="M36.25 30H3.75C1.67891 30 0 28.3211 0 26.25V3.75C0 1.67891 1.67891 0 3.75 0H36.25C38.3211 0 40 1.67891 40 3.75V26.25C40 28.3211 38.3211 30 36.25 30ZM8.75 4.375C6.33375 4.375 4.375 6.33375 4.375 8.75C4.375 11.1663 6.33375 13.125 8.75 13.125C11.1663 13.125 13.125 11.1663 13.125 8.75C13.125 6.33375 11.1663 4.375 8.75 4.375ZM5 25H35V16.25L28.1629 9.41289C27.7968 9.0468 27.2032 9.0468 26.837 9.41289L16.25 20L11.9129 15.6629C11.5468 15.2968 10.9532 15.2968 10.587 15.6629L5 21.25V25Z" fill="white"/>
</svg>
