<svg width="32" height="38" viewBox="0 0 32 38" fill="none" xmlns="http://www.w3.org/2000/svg">
<path d="M7.99977 9.5C7.99977 7.31055 9.15691 5.41797 10.8569 4.38633V19H14.2855V3.5625H17.7141V19H21.1426V4.38633C22.8426 5.41797 23.9998 7.31055 23.9998 9.5V19H27.4283V9.5C27.4283 4.25273 23.3355 0 18.2855 0H13.7141C8.66406 0 4.5712 4.25273 4.5712 9.5V19H7.99977V9.5ZM31.8783 25.3754L31.1141 23.0004C30.7998 22.0281 29.9283 21.375 28.9426 21.375H3.04977C2.06406 21.375 1.19263 22.0281 0.878343 23.0004L0.114057 25.3754C-0.371657 26.9117 0.728343 28.5 2.28549 28.5V36.8125C2.28549 37.4656 2.79977 38 3.42834 38H5.71406C6.34263 38 6.85691 37.4656 6.85691 36.8125V28.5H25.1426V36.8125C25.1426 37.4656 25.6569 38 26.2855 38H28.5712C29.1998 38 29.7141 37.4656 29.7141 36.8125V28.5C31.2712 28.5 32.3712 26.9117 31.8783 25.3754Z" fill="white"/>
</svg>
