<svg width="40" height="40" viewBox="0 0 40 40" fill="none" xmlns="http://www.w3.org/2000/svg">
<path d="M8.33366 27.916C6.03366 27.916 4.16699 29.7827 4.16699 32.0827V35.416C4.16699 35.8743 4.54199 36.2493 5.00033 36.2493H11.667C12.1253 36.2493 12.5003 35.8743 12.5003 35.416V32.0827C12.5003 29.7827 10.6337 27.916 8.33366 27.916ZM10.8337 34.5827H5.83366V32.0827C5.83366 30.7077 6.95866 29.5827 8.33366 29.5827C9.70866 29.5827 10.8337 30.7077 10.8337 32.0827V34.5827Z" fill="white"/>
<path d="M23.333 36.2493C23.7913 36.2493 24.1663 35.8743 24.1663 35.416V32.0827C24.1663 29.7827 22.2997 27.916 19.9997 27.916C17.6997 27.916 15.833 29.7827 15.833 32.0827V35.416C15.833 35.8743 16.208 36.2493 16.6663 36.2493H23.333ZM17.4997 32.0827C17.4997 30.7077 18.6247 29.5827 19.9997 29.5827C21.3747 29.5827 22.4997 30.7077 22.4997 32.0827V34.5827H17.4997V32.0827Z" fill="white"/>
<path d="M35 36.2493C35.4583 36.2493 35.8333 35.8743 35.8333 35.416V32.0827C35.8333 29.7827 33.9667 27.916 31.6667 27.916C29.3667 27.916 27.5 29.7827 27.5 32.0827V35.416C27.5 35.8743 27.875 36.2493 28.3333 36.2493H35ZM29.1667 32.0827C29.1667 30.7077 30.2917 29.5827 31.6667 29.5827C33.0417 29.5827 34.1667 30.7077 34.1667 32.0827V34.5827H29.1667V32.0827Z" fill="white"/>
<path d="M36.6667 3.75H3.33333C2.875 3.75 2.5 4.125 2.5 4.58333V23.75C2.5 24.2083 2.875 24.5833 3.33333 24.5833H36.6667C37.125 24.5833 37.5 24.2083 37.5 23.75V4.58333C37.5 4.125 37.125 3.75 36.6667 3.75ZM35.8333 22.9167H4.16667V5.41667H35.8333V22.9167Z" fill="white"/>
</svg>
