<svg width="42" height="34" viewBox="0 0 42 34" fill="none" xmlns="http://www.w3.org/2000/svg">
<path d="M0 14.875V32.9375C0 33.5245 0.469875 34 1.05 34H6.3V12.75H2.1C0.940406 12.75 0 13.7016 0 14.875ZM23.625 11.6875H22.05V9.03126C22.05 8.73774 21.8151 8.50001 21.525 8.50001H20.475C20.1849 8.50001 19.95 8.73774 19.95 9.03126V13.2813C19.95 13.5748 20.1849 13.8125 20.475 13.8125H23.625C23.9151 13.8125 24.15 13.5748 24.15 13.2813V12.2188C24.15 11.9252 23.9151 11.6875 23.625 11.6875ZM32.6648 7.44016L22.1648 0.356607C21.8198 0.124074 21.4145 0 21 0C20.5855 0 20.1802 0.124074 19.8352 0.356607L9.33516 7.44016C9.04756 7.63419 8.81173 7.89704 8.6486 8.20541C8.48547 8.51378 8.40007 8.85813 8.4 9.2079V34H16.8V24.4375C16.8 23.8505 17.2699 23.375 17.85 23.375H24.15C24.7301 23.375 25.2 23.8505 25.2 24.4375V34H33.6V9.20856C33.6 8.49801 33.2489 7.83395 32.6648 7.44016ZM21 17C18.1007 17 15.75 14.6213 15.75 11.6875C15.75 8.75368 18.1007 6.37501 21 6.37501C23.8993 6.37501 26.25 8.75368 26.25 11.6875C26.25 14.6213 23.8993 17 21 17ZM39.9 12.75H35.7V34H40.95C41.5301 34 42 33.5245 42 32.9375V14.875C42 13.7016 41.0596 12.75 39.9 12.75Z" fill="white"/>
</svg>
