<svg width="75" height="60" viewBox="0 0 75 60" fill="none" xmlns="http://www.w3.org/2000/svg">
<path d="M8.4375 7.5H11.25V35.625C11.25 40.793 15.457 45 20.625 45C25.793 45 30 40.793 30 35.625V7.5H32.8125C33.3281 7.5 33.75 7.07812 33.75 6.5625V0.9375C33.75 0.421875 33.3281 0 32.8125 0H8.4375C7.92188 0 7.5 0.421875 7.5 0.9375V6.5625C7.5 7.07812 7.92188 7.5 8.4375 7.5ZM16.875 7.5H24.375V18.75H16.875V7.5ZM73.125 52.5H1.875C0.84375 52.5 0 53.3438 0 54.375V58.125C0 59.1562 0.84375 60 1.875 60H73.125C74.1562 60 75 59.1562 75 58.125V54.375C75 53.3438 74.1562 52.5 73.125 52.5ZM42.1875 7.5H45V35.625C45 40.793 49.207 45 54.375 45C59.543 45 63.75 40.793 63.75 35.625V7.5H66.5625C67.0781 7.5 67.5 7.07812 67.5 6.5625V0.9375C67.5 0.421875 67.0781 0 66.5625 0H42.1875C41.6719 0 41.25 0.421875 41.25 0.9375V6.5625C41.25 7.07812 41.6719 7.5 42.1875 7.5ZM50.625 7.5H58.125V18.75H50.625V7.5Z" fill="white"/>
</svg>
