<svg width="84" height="66" viewBox="0 0 84 66" fill="none" xmlns="http://www.w3.org/2000/svg">
<path d="M0 28.875V63.9375C0 65.077 0.93975 66 2.1 66H12.6V24.75H4.2C1.88081 24.75 0 26.5972 0 28.875ZM47.25 22.6875H44.1V17.5313C44.1 16.9615 43.6301 16.5 43.05 16.5H40.95C40.3699 16.5 39.9 16.9615 39.9 17.5313V25.7813C39.9 26.351 40.3699 26.8125 40.95 26.8125H47.25C47.8301 26.8125 48.3 26.351 48.3 25.7813V23.7188C48.3 23.149 47.8301 22.6875 47.25 22.6875ZM65.3297 14.4427L44.3297 0.692238C43.6396 0.240849 42.8291 0 42 0C41.1709 0 40.3604 0.240849 39.6703 0.692238L18.6703 14.4427C18.0951 14.8193 17.6235 15.3296 17.2972 15.9281C16.9709 16.5267 16.8001 17.1952 16.8 17.8742V66H33.6V47.4375C33.6 46.298 34.5397 45.375 35.7 45.375H48.3C49.4602 45.375 50.4 46.298 50.4 47.4375V66H67.2V17.8754C67.2 16.4961 66.4978 15.2071 65.3297 14.4427ZM42 33C36.2014 33 31.5 28.3826 31.5 22.6875C31.5 16.9924 36.2014 12.375 42 12.375C47.7986 12.375 52.5 16.9924 52.5 22.6875C52.5 28.3826 47.7986 33 42 33ZM79.8 24.75H71.4V66H81.9C83.0602 66 84 65.077 84 63.9375V28.875C84 26.5972 82.1192 24.75 79.8 24.75Z" fill="#0B4740"/>
</svg>
