<svg width="42" height="30" viewBox="0 0 42 30" fill="none" xmlns="http://www.w3.org/2000/svg">
<path d="M41.7462 13.9164C37.7919 6.06332 29.9636 0.75 21 0.75C12.0363 0.75 4.20579 6.06703 0.25371 13.9171C0.0869073 14.253 0 14.624 0 15.0004C0 15.3767 0.0869073 15.7477 0.25371 16.0836C4.20798 23.9367 12.0363 29.25 21 29.25C29.9636 29.25 37.7941 23.933 41.7462 16.0829C41.913 15.747 41.9999 15.376 41.9999 14.9996C41.9999 14.6233 41.913 14.2523 41.7462 13.9164ZM21 25.6875C18.9233 25.6875 16.8932 25.0607 15.1665 23.8863C13.4398 22.712 12.0939 21.0428 11.2992 19.0899C10.5045 17.137 10.2966 14.9881 10.7017 12.915C11.1069 10.8418 12.1069 8.93747 13.5753 7.4428C15.0438 5.94812 16.9147 4.93024 18.9515 4.51786C20.9883 4.10548 23.0995 4.31713 25.0181 5.12604C26.9368 5.93495 28.5766 7.30479 29.7304 9.06234C30.8841 10.8199 31.5 12.8862 31.5 15C31.5006 16.4037 31.2295 17.7938 30.7021 19.0907C30.1746 20.3877 29.4012 21.5662 28.4261 22.5587C27.4509 23.5513 26.2932 24.3385 25.0189 24.8754C23.7447 25.4122 22.379 25.6882 21 25.6875ZM21 7.875C20.3752 7.88389 19.7544 7.9785 19.1544 8.15629C19.649 8.84034 19.8863 9.68214 19.8233 10.529C19.7604 11.3759 19.4014 12.1718 18.8114 12.7723C18.2214 13.3729 17.4394 13.7383 16.6074 13.8024C15.7754 13.8664 14.9484 13.6249 14.2763 13.1215C13.8936 14.5566 13.9627 16.0777 14.4738 17.4707C14.985 18.8638 15.9124 20.0586 17.1256 20.887C18.3388 21.7154 19.7767 22.1357 21.2369 22.0888C22.6971 22.0418 24.1061 21.53 25.2655 20.6253C26.4249 19.7206 27.2764 18.4685 27.7001 17.0455C28.1239 15.6224 28.0985 14.0999 27.6276 12.6922C27.1567 11.2846 26.2639 10.0627 25.075 9.19855C23.8861 8.3344 22.4609 7.8715 21 7.875Z" fill="white"/>
</svg>
