<svg width="72" height="48" viewBox="0 0 72 48" fill="none" xmlns="http://www.w3.org/2000/svg">
<path d="M69 0H11C9.34313 0 8 1.34312 8 3V4H3C1.34312 4 0 5.34312 0 7V41C0 44.866 3.134 48 7 48H66C69.3138 48 72 45.3138 72 42V3C72 1.34312 70.6569 0 69 0ZM7 42C6.73478 42 6.48043 41.8946 6.29289 41.7071C6.10536 41.5196 6 41.2652 6 41V10H8V41C8 41.2652 7.89464 41.5196 7.70711 41.7071C7.51957 41.8946 7.26522 42 7 42ZM36.5 40H17.5C16.6716 40 16 39.3284 16 38.5V37.5C16 36.6716 16.6716 36 17.5 36H36.5C37.3284 36 38 36.6716 38 37.5V38.5C38 39.3284 37.3284 40 36.5 40ZM62.5 40H43.5C42.6716 40 42 39.3284 42 38.5V37.5C42 36.6716 42.6716 36 43.5 36H62.5C63.3284 36 64 36.6716 64 37.5V38.5C64 39.3284 63.3284 40 62.5 40ZM36.5 28H17.5C16.6716 28 16 27.3284 16 26.5V25.5C16 24.6716 16.6716 24 17.5 24H36.5C37.3284 24 38 24.6716 38 25.5V26.5C38 27.3284 37.3284 28 36.5 28ZM62.5 28H43.5C42.6716 28 42 27.3284 42 26.5V25.5C42 24.6716 42.6716 24 43.5 24H62.5C63.3284 24 64 24.6716 64 25.5V26.5C64 27.3284 63.3284 28 62.5 28ZM62.5 16H17.5C16.6716 16 16 15.3284 16 14.5V9.5C16 8.67163 16.6716 8 17.5 8H62.5C63.3284 8 64 8.67163 64 9.5V14.5C64 15.3284 63.3284 16 62.5 16Z" fill="#0B4740"/>
</svg>
