<svg width="58" height="58" viewBox="0 0 58 58" fill="none" xmlns="http://www.w3.org/2000/svg">
<path d="M18.0915 26.8931C12.2802 34.9248 4.88293 39.4447 1.58644 36.9978C-1.72137 34.5396 0.317695 26.0548 6.14035 18.0232C11.9517 9.99155 19.3489 5.47163 22.6454 7.9185C25.9419 10.3654 23.9029 18.8615 18.0915 26.8931ZM57.8759 20.4021C49.5157 34.381 36.1372 41.665 27.913 36.6693C25.081 34.9474 23.2345 32.0021 22.3622 28.3091C18.556 35.6497 11.8497 41.2005 3.77277 43.3982C9.41418 50.1158 17.831 54.3751 27.222 54.3751C44.2142 54.3751 57.9892 40.4302 57.9892 23.2341C58.0005 22.2712 57.9552 21.331 57.8759 20.4021Z" fill="#70C49C"/>
</svg>
