<svg width="59" height="68" viewBox="0 0 59 68" fill="none" xmlns="http://www.w3.org/2000/svg">
<path d="M42.0638 42.5791L29.5 55.2494L16.9362 42.5791C7.51987 42.9908 0 50.7603 0 60.3494V61.6244C0 65.1439 2.83147 67.9994 6.32143 67.9994H52.6786C56.1685 67.9994 59 65.1439 59 61.6244V60.3494C59 50.7603 51.4801 42.9908 42.0638 42.5791ZM1.79107 10.5979L2.63393 10.7971V18.5533C1.71205 19.1111 1.05357 20.0807 1.05357 21.2494C1.05357 22.365 1.65938 23.2947 2.5154 23.8658L0.460938 32.14C0.237054 33.0564 0.7375 33.9994 1.46183 33.9994H6.96674C7.69107 33.9994 8.19152 33.0564 7.96763 32.14L5.91317 23.8658C6.7692 23.2947 7.375 22.365 7.375 21.2494C7.375 20.0807 6.71652 19.1111 5.79464 18.5533V11.5674L14.4866 13.6791C13.354 15.9635 12.6429 18.5135 12.6429 21.2494C12.6429 30.6393 20.1891 38.2494 29.5 38.2494C38.8109 38.2494 46.3571 30.6393 46.3571 21.2494C46.3571 18.5135 45.6592 15.9635 44.5134 13.6791L57.1958 10.5979C59.5926 10.0135 59.5926 6.99863 57.1958 6.41426L32.1208 0.304883C30.4087 -0.106836 28.6045 -0.106836 26.8924 0.304883L1.79107 6.40098C-0.592634 6.98535 -0.592634 10.0135 1.79107 10.5979Z" fill="#70C49C"/>
</svg>
