<svg width="68" height="68" viewBox="0 0 68 68" fill="none" xmlns="http://www.w3.org/2000/svg">
<g clip-path="url(#clip0)">
<path d="M29.7177 17.3652L20.5364 2.06391C20.1588 1.43445 19.6247 0.913509 18.9861 0.551815C18.3474 0.19012 17.626 9.01167e-06 16.892 0H2.12987C0.409943 0 -0.596776 1.93508 0.388693 3.34422L15.1667 24.4561C19.1139 20.7679 24.1342 18.2365 29.7177 17.3652ZM65.8719 0H51.1098C49.617 0 48.2331 0.783594 47.4654 2.06391L38.2841 17.3652C43.8675 18.2365 48.8878 20.7679 52.835 24.4548L67.6131 3.34422C68.5985 1.93508 67.5918 0 65.8719 0ZM34.0009 21.25C21.0915 21.25 10.6259 31.7156 10.6259 44.625C10.6259 57.5344 21.0915 68 34.0009 68C46.9103 68 57.3759 57.5344 57.3759 44.625C57.3759 31.7156 46.9103 21.25 34.0009 21.25ZM46.2887 42.1361L41.2511 47.0448L42.4424 53.9803C42.6549 55.2234 41.3454 56.173 40.2311 55.586L34.0009 52.3122L27.772 55.586C26.6564 56.177 25.3482 55.2221 25.5606 53.9803L26.752 47.0448L21.7144 42.1361C20.8086 41.2542 21.3093 39.7149 22.5578 39.5343L29.5211 38.5196L32.6329 32.2084C32.9132 31.6399 33.455 31.3597 33.9982 31.3597C34.5441 31.3597 35.0899 31.6439 35.3702 32.2084L38.482 38.5196L45.4453 39.5343C46.6938 39.7149 47.1945 41.2542 46.2887 42.1361Z" fill="#70C49C"/>
</g>
<defs>
<clipPath id="clip0">
<rect width="68" height="68" fill="white"/>
</clipPath>
</defs>
</svg>
