<svg width="72" height="64" viewBox="0 0 72 64" fill="none" xmlns="http://www.w3.org/2000/svg">
<path d="M69 8H56V3C56 1.3375 54.6625 0 53 0H19C17.3375 0 16 1.3375 16 3V8H3C1.3375 8 0 9.3375 0 11V18C0 22.4625 2.8125 27.05 7.7375 30.5875C11.675 33.425 16.4625 35.225 21.4875 35.8C25.4125 42.3125 30 45 30 45V54H24C19.5875 54 16 56.5875 16 61V62.5C16 63.325 16.675 64 17.5 64H54.5C55.325 64 56 63.325 56 62.5V61C56 56.5875 52.4125 54 48 54H42V45C42 45 46.5875 42.3125 50.5125 35.8C55.55 35.225 60.3375 33.425 64.2625 30.5875C69.175 27.05 72 22.4625 72 18V11C72 9.3375 70.6625 8 69 8ZM12.4125 24.1C9.3625 21.9 8 19.45 8 18V16H16.025C16.15 20.075 16.75 23.65 17.625 26.775C15.7375 26.125 13.975 25.225 12.4125 24.1ZM64 18C64 20.0125 61.7875 22.5125 59.5875 24.1C58.025 25.225 56.25 26.125 54.3625 26.775C55.2375 23.65 55.8375 20.075 55.9625 16H64V18Z" fill="#0B4740"/>
</svg>
