<svg width="18" height="19" viewBox="0 0 18 19" fill="none" xmlns="http://www.w3.org/2000/svg">
<path d="M8 0C3.58892 0 0 3.58892 0 8C0 12.4113 3.58892 16 8 16C12.4113 16 16 12.4113 16 8C16 3.58892 12.4113 0 8 0ZM8 14.5231C4.4032 14.5231 1.47692 11.5968 1.47692 8.00004C1.47692 4.40324 4.4032 1.47692 8 1.47692C11.5968 1.47692 14.5231 4.4032 14.5231 8C14.5231 11.5968 11.5968 14.5231 8 14.5231Z" fill="white" fill-opacity="0.5"/>
<path d="M17.791 17.5342L14.1389 13.0852C13.8602 12.7498 13.8302 13.49 13.5514 13.8254C13.2727 14.1606 12.8071 14.0174 13.0858 14.3526L16.7821 18.7484C16.9215 18.9161 17.1039 19 17.2866 19C17.4689 19 17.6516 18.9161 17.791 18.7484C18.0697 18.4132 18.0697 17.8694 17.791 17.5342Z" fill="white" fill-opacity="0.5"/>
</svg>
