<svg width="22" height="24" viewBox="0 0 22 24" fill="none" xmlns="http://www.w3.org/2000/svg">
<path d="M11 11.7461C14.4719 11.7461 17.2857 9.17207 17.2857 5.99609C17.2857 2.82012 14.4719 0.246094 11 0.246094C7.52812 0.246094 4.71429 2.82012 4.71429 5.99609C4.71429 9.17207 7.52812 11.7461 11 11.7461ZM15.4 13.1836H14.5799C13.4897 13.6418 12.2768 13.9023 11 13.9023C9.72321 13.9023 8.51518 13.6418 7.42009 13.1836H6.6C2.95625 13.1836 0 15.8879 0 19.2211V21.0898C0 22.2803 1.0558 23.2461 2.35714 23.2461H19.6429C20.9442 23.2461 22 22.2803 22 21.0898V19.2211C22 15.8879 19.0437 13.1836 15.4 13.1836Z" fill="#2E2E2E"/>
</svg>
